HIERARCHY
ROOT Hips
{
	OFFSET 0.000000 0.000000 0.000000
	CHANNELS 6 Xposition Yposition Zposition Xrotation Yrotation Zrotation
	JOINT Spine1
	{
		OFFSET 0.000000 2.082711 0.000002
		CHANNELS 6 Xposition Yposition Zposition Xrotation Yrotation Zrotation
		JOINT Neck
		{
			OFFSET 0.000000 1.660410 0.000002
			CHANNELS 6 Xposition Yposition Zposition Xrotation Yrotation Zrotation
			JOINT Head
			{
				OFFSET 0.000000 1.055760 0.136227
				CHANNELS 6 Xposition Yposition Zposition Xrotation Yrotation Zrotation
				End Site
				{
					OFFSET 0.000000 1.362267 0.000000
				}
			}
		}
		JOINT LeftShoulder
		{
			OFFSET 0.274325 1.340693 -0.036009
			CHANNELS 6 Xposition Yposition Zposition Xrotation Yrotation Zrotation
			JOINT LeftArm
			{
				OFFSET 0.978870 0.000000 0.000000
				CHANNELS 6 Xposition Yposition Zposition Xrotation Yrotation Zrotation
				JOINT LeftForeArm
				{
					OFFSET 1.919408 0.000000 0.000000
					CHANNELS 6 Xposition Yposition Zposition Xrotation Yrotation Zrotation
					JOINT LeftHand
					{
						OFFSET 1.783837 0.000000 0.000000
						CHANNELS 6 Xposition Yposition Zposition Xrotation Yrotation Zrotation
						End Site
						{
							OFFSET 1.021700 0.000000 0.000000
						}
					}
				}
			}
		}
		JOINT RightShoulder
		{
			OFFSET -0.270541 1.340693 -0.036009
			CHANNELS 6 Xposition Yposition Zposition Xrotation Yrotation Zrotation
			JOINT RightArm
			{
				OFFSET -0.978870 0.000000 0.000000
				CHANNELS 6 Xposition Yposition Zposition Xrotation Yrotation Zrotation
				JOINT RightForeArm
				{
					OFFSET -1.919407 0.000000 0.000000
					CHANNELS 6 Xposition Yposition Zposition Xrotation Yrotation Zrotation
					JOINT RightHand
					{
						OFFSET -1.783838 0.000000 0.000000
						CHANNELS 6 Xposition Yposition Zposition Xrotation Yrotation Zrotation
						End Site
						{
							OFFSET -1.021700 0.000000 0.000000
						}
					}
				}
			}
		}
	}
	JOINT LeftUpLeg
	{
		OFFSET 0.681135 0.000000 0.000000
		CHANNELS 6 Xposition Yposition Zposition Xrotation Yrotation Zrotation
		JOINT LeftLeg
		{
			OFFSET 0.000000 -2.864618 -0.000002
			CHANNELS 6 Xposition Yposition Zposition Xrotation Yrotation Zrotation
			JOINT LeftFoot
			{
				OFFSET 0.000000 -3.003225 -0.000002
				CHANNELS 6 Xposition Yposition Zposition Xrotation Yrotation Zrotation
				JOINT LeftToeBase
				{
					OFFSET 0.000000 -0.442738 1.021702
					CHANNELS 6 Xposition Yposition Zposition Xrotation Yrotation Zrotation
					End Site
					{
						OFFSET 0.000000 0.000000 0.272454
					}
				}
			}
		}
	}
	JOINT RightUpLeg
	{
		OFFSET -0.681135 0.000000 0.000000
		CHANNELS 6 Xposition Yposition Zposition Xrotation Yrotation Zrotation
		JOINT RightLeg
		{
			OFFSET 0.000000 -2.864618 -0.000002
			CHANNELS 6 Xposition Yposition Zposition Xrotation Yrotation Zrotation
			JOINT RightFoot
			{
				OFFSET 0.000000 -3.003225 -0.000002
				CHANNELS 6 Xposition Yposition Zposition Xrotation Yrotation Zrotation
				JOINT RightToeBase
				{
					OFFSET 0.000000 -0.442738 1.021702
					CHANNELS 6 Xposition Yposition Zposition Xrotation Yrotation Zrotation
					End Site
					{
						OFFSET 0.000000 0.000000 0.272454
					}
				}
			}
		}
	}
}
MOTION
Frames: 5
Frame Time: 0.016667
0.852397 5.600456 -0.117706 10.478289 -4.024164 4.636980 0.000000 2.082710 0.000001 -5.600200 4.070269 4.271742 0.000000 1.660408 0.000001 6.589930 -3.864261 -0.869571 -0.000000 1.055762 0.136228 17.970468 -3.810409 8.455046 0.274325 1.340690 -0.036009 -7.751454 -0.110467 18.311093 0.978871 -0.000000 0.000000 7.711892 -19.596158 -18.710338 1.919407 0.000002 -0.000001 4.489579 -42.297186 35.291236 1.783839 0.000001 -0.000000 -10.469754 3.386141 30.698620 -0.270540 1.340692 -0.036009 -5.828797 2.667379 -13.301140 -0.978871 -0.000001 -0.000000 -1.110632 58.231980 55.569722 -1.919409 -0.000000 -0.000001 163.751818 66.368204 -198.697183 -1.783838 -0.000001 -0.000003 -44.640214 -1.912951 -7.957278 0.681135 -0.000000 -0.000000 -31.002075 19.389111 21.362014 0.000000 -2.864616 -0.000001 39.157785 9.360702 -15.349657 -0.000001 -3.003226 -0.000002 -8.131334 18.014358 -0.778801 -0.000000 -0.442738 1.021702 -0.000002 -0.000009 -0.000003 -0.681135 -0.000001 -0.000000 -21.570868 7.504577 -35.520740 0.000001 -2.864617 -0.000001 32.840455 -22.951847 30.996280 0.000001 -3.003226 -0.000002 1.369879 -27.980143 8.770344 0.000000 -0.442738 1.021702 -0.000002 -0.000001 -0.000000 
0.851264 5.600836 -0.119689 10.416866 -3.971869 4.579272 0.000000 2.082709 0.000002 -5.464856 4.255166 4.223311 0.000000 1.660407 0.000002 6.704363 -4.266884 -0.841513 0.000000 1.055761 0.136227 18.579506 -4.156544 9.072704 0.274325 1.340690 -0.036009 -7.732460 -0.214798 18.180920 0.978871 0.000000 -0.000000 7.745931 -20.013791 -18.839403 1.919407 -0.000001 0.000000 5.372069 -42.842853 36.404014 1.783836 0.000002 0.000000 -10.205099 3.125047 31.313450 -0.270540 1.340691 -0.036009 -5.802156 2.783863 -13.172307 -0.978870 -0.000004 -0.000000 -0.206658 59.762598 55.044959 -1.919408 -0.000001 -0.000000 165.538883 66.306090 -200.673553 -1.783838 -0.000002 0.000001 -45.727915 -0.830888 -8.866213 0.681135 -0.000002 0.000000 -30.984818 19.323346 21.388696 -0.000000 -2.864615 -0.000001 39.149340 9.331346 -15.327595 -0.000001 -3.003225 -0.000002 -8.115136 18.033538 -0.809929 0.000000 -0.442737 1.021702 -0.000003 -0.000010 -0.000000 -0.681135 -0.000001 0.000000 -20.848625 8.161567 -35.589432 0.000001 -2.864617 -0.000002 32.766326 -23.630163 31.596588 0.000001 -3.003226 -0.000002 1.352609 -28.166894 8.654556 -0.000000 -0.442738 1.021702 -0.000001 -0.000003 -0.000001 
0.849931 5.601244 -0.122382 10.371227 -3.907623 4.495782 -0.000000 2.082712 0.000002 -5.295447 4.396231 4.174634 -0.000000 1.660411 0.000001 6.770113 -4.661982 -0.817644 0.000000 1.055765 0.136227 19.156782 -4.492130 9.677542 0.274324 1.340693 -0.036009 -7.770185 -0.282456 18.093963 0.978870 0.000002 -0.000000 7.844661 -20.417662 -19.006053 1.919407 -0.000001 -0.000001 6.396292 -43.327237 37.716591 1.783835 -0.000000 -0.000000 -9.910267 3.010440 31.687959 -0.270541 1.340693 -0.036009 -5.828914 2.938188 -13.079169 -0.978871 -0.000001 0.000000 0.866081 60.803307 54.538876 -1.919410 -0.000001 -0.000000 169.168090 65.613475 -203.886720 -1.783839 -0.000001 0.000000 -47.292298 -1.965672 -7.403695 0.681135 0.000000 0.000000 -31.010674 19.243004 21.439650 0.000000 -2.864616 -0.000001 39.141024 9.242447 -15.296685 -0.000001 -3.003226 -0.000002 -8.110041 18.095553 -0.785499 0.000001 -0.442739 1.021702 0.000000 -0.000004 0.000001 -0.681135 0.000001 -0.000000 -20.814568 8.084784 -35.506530 0.000000 -2.864618 -0.000001 32.766268 -23.690024 31.585783 0.000001 -3.003225 -0.000002 1.383015 -28.137330 8.678332 -0.000000 -0.442738 1.021702 0.000003 -0.000004 0.000002 
0.848805 5.601277 -0.124711 10.307480 -3.833749 4.422096 -0.000000 2.082710 0.000002 -5.139533 4.557090 4.119620 0.000000 1.660413 0.000001 6.896050 -5.052612 -0.818263 -0.000000 1.055760 0.136227 19.667622 -4.820981 10.354575 0.274325 1.340696 -0.036009 -7.751317 -0.401730 17.989528 0.978870 -0.000001 -0.000000 7.877060 -20.734636 -19.195439 1.919407 -0.000001 -0.000000 7.356496 -43.993774 38.973715 1.783835 -0.000002 0.000001 -9.712171 2.772752 32.149256 -0.270541 1.340694 -0.036009 -5.831351 3.065601 -12.968726 -0.978871 -0.000002 0.000001 2.104817 61.923902 53.724700 -1.919408 0.000001 -0.000000 172.273394 65.064560 -206.668233 -1.783839 -0.000002 -0.000000 -48.625435 -2.172012 -6.869946 0.681135 -0.000001 -0.000000 -31.043343 19.213718 21.483721 -0.000000 -2.864617 -0.000001 39.163868 9.223721 -15.232932 -0.000001 -3.003226 -0.000002 -8.097039 18.045776 -0.795958 -0.000000 -0.442738 1.021702 0.000003 -0.000000 0.000002 -0.681135 0.000000 -0.000000 -21.011221 7.729843 -35.422812 -0.000000 -2.864617 -0.000001 32.814534 -23.482218 31.389224 0.000001 -3.003226 -0.000001 1.418858 -28.021669 8.729287 0.000000 -0.442738 1.021702 0.000000 0.000007 -0.000000 
0.848075 5.601270 -0.127131 10.266182 -3.756697 4.352381 0.000000 2.082710 0.000002 -4.998532 4.701991 4.049865 -0.000000 1.660407 0.000001 6.987178 -5.454807 -0.759224 0.000000 1.055762 0.136226 20.216105 -5.154002 10.909198 0.274324 1.340689 -0.036009 -7.768394 -0.508001 17.883431 0.978871 0.000003 0.000000 7.869587 -21.025040 -19.411657 1.919407 -0.000001 -0.000001 8.500079 -44.582953 40.328394 1.783836 -0.000002 0.000001 -9.364307 2.545176 32.526860 -0.270541 1.340690 -0.036009 -5.876889 3.237741 -12.890560 -0.978871 -0.000002 0.000001 3.640312 63.224554 52.603942 -1.919408 -0.000001 -0.000000 175.755507 64.367710 -209.694608 -1.783840 0.000000 -0.000000 -50.050011 -1.828575 -7.585515 0.681135 -0.000001 0.000000 -31.067894 19.139011 21.516334 0.000000 -2.864617 -0.000001 39.163058 9.160639 -15.209248 -0.000001 -3.003226 -0.000003 -8.103546 18.073008 -0.773343 0.000000 -0.442738 1.021702 -0.000002 0.000003 0.000002 -0.681135 -0.000002 0.000000 -20.672158 7.971484 -35.433427 0.000001 -2.864618 -0.000001 32.785731 -23.814274 31.676262 0.000001 -3.003226 -0.000002 1.424214 -28.089732 8.696135 -0.000000 -0.442738 1.021703 -0.000002 -0.000007 -0.000002 
